<?xml version="1.0" standalone="no"?>
<!DOCTYPE svg PUBLIC "-//W3C//DTD SVG 20010904//EN"
 "http://www.w3.org/TR/2001/REC-SVG-20010904/DTD/svg10.dtd">
<svg version="1.0" xmlns="http://www.w3.org/2000/svg"
 width="260.000000pt" height="260.000000pt" viewBox="0 0 260.000000 260.000000"
 preserveAspectRatio="xMidYMid meet">
<metadata>
Created by potrace 1.11, written by Peter Selinger 2001-2013
</metadata>
<g transform="translate(0.000000,260.000000) scale(0.100000,-0.100000)"
fill="#000000" stroke="none">
<path d="M1173 2172 l-93 -3 0 -59 0 -59 38 -10 c20 -6 60 -16 87 -24 l50 -13
1 -632 c1 -660 0 -677 -43 -724 -34 -37 -74 -51 -160 -53 -46 -1 -85 -4 -87
-6 -3 -2 -7 -33 -11 -69 -4 -36 -7 -69 -8 -74 -3 -16 64 -25 153 -22 96 4 112
7 172 34 85 38 150 112 184 212 17 51 19 98 21 690 1 349 2 638 2 642 1 3 25
11 54 18 28 6 68 15 88 20 l35 10 0 65 -1 65 -195 -2 c-107 -2 -237 -4 -287
-6z"/>
</g>
</svg>
